<svg xmlns="http://www.w3.org/2000/svg" viewBox="0 0 512 512" width="512" height="512">
  <defs>
    <radialGradient id="lgBg" cx="0.5" cy="0.4" r="0.75">
      <stop offset="0" stop-color="#fbbf24"/>
      <stop offset="1" stop-color="#92580a"/>
    </radialGradient>
  </defs>
  <circle cx="256" cy="256" r="200" fill="url(#lgBg)"/>
  <circle cx="256" cy="256" r="200" fill="none" stroke="#fde68a" stroke-width="10"/>
  <circle cx="256" cy="214" r="70" fill="#fff7e0"/>
  <path d="M142 432c0-76 54-126 114-126s114 50 114 126z" fill="#fff7e0"/>
  <!-- laurel -->
  <g stroke="#b8860b" stroke-width="10" fill="none" stroke-linecap="round">
    <path d="M150 300C110 250 110 180 150 130"/>
    <path d="M362 300C402 250 402 180 362 130"/>
  </g>
  <g fill="#b8860b">
    <ellipse cx="132" cy="250" rx="14" ry="7" transform="rotate(60 132 250)"/>
    <ellipse cx="128" cy="205" rx="14" ry="7" transform="rotate(40 128 205)"/>
    <ellipse cx="138" cy="162" rx="14" ry="7" transform="rotate(20 138 162)"/>
    <ellipse cx="380" cy="250" rx="14" ry="7" transform="rotate(-60 380 250)"/>
    <ellipse cx="384" cy="205" rx="14" ry="7" transform="rotate(-40 384 205)"/>
    <ellipse cx="374" cy="162" rx="14" ry="7" transform="rotate(-20 374 162)"/>
  </g>
  <path d="M256 150l16 34 38 5-27 27 6 38-33-18-33 18 6-38-27-27 38-5z" fill="#f59e0b"/>
</svg>
